{"title":"NattvardsgÃƒÂ¤sterna","uid":4956416,"size":1351473265,"categoryP":"video","categoryS":"movies","magnet":"?xt=urn:btih:8008e52062cebd7a38001485e6471852dfe82f80&amp;dn=Nattvardsg%C3%83%C2%A4sterna&amp;tr=udp%3A%2F%2Ftracker.openbittorrent.com%3A80&amp;tr=udp%3A%2F%2Fopen.demonii.com%3A1337&amp;tr=udp%3A%2F%2Ftracker.coppersurfer.tk%3A6969&amp;tr=udp%3A%2F%2Fexodus.desync.com%3A6969","seeders":0,"leechers":0,"uploader":"Kuthumi","files":2,"time":1245125393,"description":"NattvardsgÃƒÂ¤sterna (Winter Light) x264\n\n\nFormat                           : Matroska\nFile size                        : 1.24 GiB\nDuration                         : 1h 21mn\nOverall bit rate                 : 2 187 Kbps\nEncoded date                     : UTC 2009-06-13 03:08:15\nWriting application              : mkvmerge v2.9.0 ('Moanin'') built on May 22 2009 17:46:31\nWriting library                  : libebml v0.7.7 + libmatroska v0.8.1\n\nVideo\nID                               : 1\nFormat                           : AVC\nFormat/Info                      : Advanced Video Codec\nFormat profile                   : &lt;a class=&quot;__cf_email__&quot; href=&quot;/cdn-cgi/l/email-protection&quot; data-cfemail=&quot;cd85a4aaa58d81fee3fc&quot;&gt;[email&amp;#160;protected]&lt;/a&gt;&lt;script data-cfhash='f9e31' type=&quot;text/javascript&quot;&gt;\n/* &lt;![CDATA[ */!function(){try{var t=&quot;currentScript&quot;in document?document.currentScript:function(){for(var t=document.getElementsByTagName(&quot;script&quot;),e=t.length;e--;)if(t[e].getAttribute(&quot;data-cfhash&quot;))return t[e]}();if(t&amp;&amp;t.previousSibling){var e,r,n,i,c=t.previousSibling,a=c.getAttribute(&quot;data-cfemail&quot;);if(a){for(e=&quot;&quot;,r=parseInt(a.substr(0,2),16),n=2;a.length-n;n+=2)i=parseInt(a.substr(n,2),16)^r,e+=String.fromCharCode(i);e=document.createTextNode(e),c.parentNode.replaceChild(e,c)}t.parentNode.removeChild(t);}}catch(u){}}()/* ]]&gt; */&lt;/script&gt;\nFormat settings, CABAC           : Yes\nFormat settings, ReFrames        : 9 frames\nMuxing mode                      : Container profile=&lt;a class=&quot;__cf_email__&quot; href=&quot;/cdn-cgi/l/email-protection&quot; data-cfemail=&quot;baefd4d1d4d5cdd4fa89948b&quot;&gt;[email&amp;#160;protected]&lt;/a&gt;&lt;script data-cfhash='f9e31' type=&quot;text/javascript&quot;&gt;\n/* &lt;![CDATA[ */!function(){try{var t=&quot;currentScript&quot;in document?document.currentScript:function(){for(var t=document.getElementsByTagName(&quot;script&quot;),e=t.length;e--;)if(t[e].getAttribute(&quot;data-cfhash&quot;))return t[e]}();if(t&amp;&amp;t.previousSibling){var e,r,n,i,c=t.previousSibling,a=c.getAttribute(&quot;data-cfemail&quot;);if(a){for(e=&quot;&quot;,r=parseInt(a.substr(0,2),16),n=2;a.length-n;n+=2)i=parseInt(a.substr(n,2),16)^r,e+=String.fromCharCode(i);e=document.createTextNode(e),c.parentNode.replaceChild(e,c)}t.parentNode.removeChild(t);}}catch(u){}}()/* ]]&gt; */&lt;/script&gt;\nCodec ID                         : V_MPEG4/ISO/AVC\nDuration                         : 1h 21mn\nBit rate                         : 1 759 Kbps\nNominal bit rate                 : 1 800 Kbps\nWidth                            : 720 pixels\nHeight                           : 480 pixels\nDisplay aspect ratio             : 4/3\nFrame rate                       : 23.976 fps\nStandard                         : NTSC\nResolution                       : 24 bits\nColorimetry                      : 4:2:0\nScan type                        : Progressive\nBits/(Pixel*Frame)               : 0.212\nStream size                      : 1 021 MiB (80%)\nWriting library                  : x264 core 65\nEncoding settings                : cabac=1 / ref=9 / deblock=1:-2:-1 / analyse=0x3:0x133 / me=umh / subme=9 / psy_rd=1.0:0.0 / mixed_ref=1 / me_range=64 / chroma_me=1 / trellis=2 / 8x8dct=1 / cqm=0 / deadzone=21,11 / chroma_qp_offset=-2 / threads=6 / nr=0 / decimate=0 / mbaff=0 / bframes=16 / b_pyramid=1 / b_adapt=1 / b_bias=0 / direct=3 / wpredb=1 / keyint=240 / keyint_min=24 / scenecut=40(pre) / rc=2pass / bitrate=1800 / ratetol=1.0 / qcomp=0.60 / qpmin=10 / qpmax=51 / qpstep=4 / cplxblur=20.0 / qblur=0.5 / ip_ratio=1.40 / pb_ratio=1.30 / aq=1:1.00\nLanguage                         : English\n\nAudio #1\nID                               : 2\nFormat                           : AC-3\nFormat/Info                      : Audio Coding 3\nCodec ID                         : A_AC3\nDuration                         : 1h 21mn\nBit rate mode                    : Constant\nBit rate                         : 192 Kbps\nChannel(s)                       : 1 channel\nChannel positions                : C\nSampling rate                    : 48.0 KHz\nStream size                      : 112 MiB (9%)\nLanguage                         : Swedish\n\nAudio #2\nID                               : 3\nFormat                           : AC-3\nFormat/Info                      : Audio Coding 3\nCodec ID                         : A_AC3\nDuration                         : 1h 21mn\nBit rate mode                    : Constant\nBit rate                         : 192 Kbps\nChannel(s)                       : 1 channel\nChannel positions                : C\nSampling rate                    : 48.0 KHz\nStream size                      : 112 MiB (9%)\nLanguage                         : English\n\nText\nID                               : 4\nFormat                           : UTF-8\nCodec ID                         : S_TEXT/UTF8\nCodec ID/Info                    : UTF-8 Plain Text\nLanguage                         : English &lt;a href=&quot;\nhttp://img401.imageshack.us/img401/8021/nattvardsgsterna1962x26.jpg&quot; rel=&quot;nofollow&quot; target=&quot;_NEW&quot;&gt;\nhttp://img401.imageshack.us/img401/8021/nattvardsgsterna1962x26.jpg&lt;/a&gt;","torrent":{"xt":"urn:btih:8008e52062cebd7a38001485e6471852dfe82f80","amp;dn":"Nattvardsg%C3%83%C2%A4sterna","amp;tr":["udp%3A%2F%2Ftracker.openbittorrent.com%3A80","udp%3A%2F%2Fopen.demonii.com%3A1337","udp%3A%2F%2Ftracker.coppersurfer.tk%3A6969","udp%3A%2F%2Fexodus.desync.com%3A6969"],"infoHash":"8008e52062cebd7a38001485e6471852dfe82f80","infoHashBuffer":{"type":"Buffer","data":[128,8,229,32,98,206,189,122,56,0,20,133,230,71,24,82,223,232,47,128]},"announce":[],"urlList":[]}}